<?xml version="1.0" encoding="utf-8"?>
<!-- Generator: Adobe Illustrator 19.0.1, SVG Export Plug-In . SVG Version: 6.00 Build 0)  -->
<svg version="1.1" id="Layer_1" xmlns="http://www.w3.org/2000/svg" xmlns:xlink="http://www.w3.org/1999/xlink" x="0px" y="0px"
	 viewBox="0 0 183.3 11.3" enable-background="new 0 0 183.3 11.3" xml:space="preserve">
<g>
	<path d="M7.9,9.3L4.7,4.9v3.2h1.3v3.2H0V8.1h1.2V3.2H0V0h4.7l3.2,4.4L11.1,0h4.7v3.2h-1.2v4.9h1.2v3.2H9.8V8.1h1.3
		V4.9L7.9,9.3z"/>
	<path d="M107.9,5.7c0,2.7-1.9,4.1-3.9,4.1c-2.3,0-4.1-1.7-4.1-4.2c0-2.1,1.4-4.1,4-4.1
		C106.3,1.6,107.9,3.3,107.9,5.7z M104,9.1c0.4,0,1.1-0.2,1.6-1c0.6-0.9,0.7-1.6,0.6-2.7c0-1-0.3-1.9-0.9-2.5
		c-0.3-0.3-0.7-0.7-1.4-0.6c-0.7,0-1.1,0.4-1.4,0.7c-0.6,0.6-0.8,1.5-0.8,2.5c0,1,0.1,1.8,0.7,2.6C102.9,8.9,103.6,9.1,104,9.1z
		 M108.7,9.2v0.4h3.3V9.2c-0.8-0.1-0.9-0.2-0.9-1l0-2.2h0.9c0.9,0,1.3,0.1,1.4,1h0.4V4.3h-0.4c0,0.8-0.3,0.9-1.2,0.9h-1V2.5
		c0.3,0,0.4,0,0.9,0c1.5,0,2,0,2.2,1.2h0.4l-0.1-1.9h-5.8v0.4c0.6,0.1,0.8,0.1,0.9,0.5c0.1,0.2,0.1,1.1,0.1,1.4v2.8
		c0,0.2,0,1.2,0,1.4C109.6,9,109.6,9.1,108.7,9.2z M170.7,9.6V9.2c0.5,0,0.9-0.1,0.9-0.5c0-0.2,0-0.3-0.1-0.5l-0.2-0.8h-2.8
		l-0.2,0.7c-0.1,0.2-0.1,0.3-0.1,0.5c0,0.6,0.6,0.6,1.1,0.6v0.4H166V9.2c0.8,0,1.1-0.2,1.4-1l2.1-5.9l-0.1-0.2
		c0.9-0.3,1.2-0.4,1.6-0.7c0.2,0.5,0.2,0.6,0.4,1.2l1.7,5.4c0.3,1,0.5,1.2,1.3,1.3v0.4H170.7z M170,3.3l-1.2,3.3h2.3L170,3.3z
		 M142.6,7.9c-0.4,0.6-1.2,2-3.4,2c-2.4,0-3.9-1.8-3.9-4.1c0-2.1,1.3-4.2,4-4.2c1.4,0,2.1,0.6,2.6,0.9l0.5-0.5l0,2.4l-0.4,0.1
		c-0.1-0.5-0.3-0.8-0.9-1.4c-0.2-0.3-0.8-0.8-1.6-0.8c-1.4,0-2.5,1.2-2.5,3.2c0,1.7,0.9,3.4,2.7,3.4c1.4,0,1.9-0.8,2.3-1.4
		L142.6,7.9z M143.9,9.6V9.2c0.9-0.1,0.9-0.3,0.9-1c0-0.3,0-0.6,0-0.8V4c0-0.5,0-1,0-1.3c0-0.5-0.3-0.5-0.9-0.6V1.8h3.4v0.4
		c-0.7,0.1-0.9,0.1-1,0.5c-0.1,0.3-0.1,0.8-0.1,1.3v1.1c0.7,0,1.2,0.1,1.8,0.1c0.7,0,1.2,0,1.9-0.1V3.8c0-1.4,0-1.5-1.1-1.6V1.8h3.4
		v0.4c-0.9,0.1-0.9,0.1-0.9,1.6v3.3c0,0.3,0,1.3,0,1.5c0.1,0.4,0.3,0.5,0.9,0.5v0.4h-3.4V9.2c0.8-0.1,1-0.1,1.1-0.7
		c0-0.2,0-0.5,0-1.1V6c-0.6,0-1.1-0.1-1.8-0.1c-0.7,0-1.2,0-1.9,0.1v1.4c0,1.6,0,1.6,1.1,1.8v0.4H143.9z M153.6,9.6V9.2
		c0.8-0.1,0.9-0.2,0.9-1v-1V4c0-1.6,0-1.7-0.9-1.8V1.8h3.3v0.4C156,2.3,156,2.3,156,4v3.2c0,0.3,0,1.2,0,1.4
		c0.1,0.5,0.3,0.6,0.9,0.6v0.4H153.6z M131.2,9.6V9.2c0.8-0.1,0.9-0.2,0.9-1v-1V4c0-1.6,0-1.7-0.9-1.8V1.8h3.3v0.4
		c-0.9,0.1-0.9,0.1-0.9,1.8v3.2c0,0.3,0,1.2,0,1.4c0.1,0.5,0.3,0.6,0.9,0.6v0.4H131.2z M126.2,9.6V9.2c1-0.1,1-0.1,1-1.6v-4
		l-2.8,6.1h-0.7l-2.5-6.1l-0.1,4.6c0,0.8,0.1,0.9,0.9,1v0.4h-2.7V9.2c0.6,0,0.9-0.1,0.9-0.7c0-0.2,0.1-0.9,0.1-1.3l0.1-3.3
		c0-0.3,0-0.6,0-0.9c0-0.8-0.2-0.8-0.9-0.8V1.8h2.5l2.5,6l2.7-6h2.4v0.5c-0.9,0.1-0.9,0.2-0.9,1.4v3.3c0,0.5,0,1.2,0,1.6
		c0,0.6,0.3,0.7,0.9,0.7v0.4H126.2z M174.9,9.6V9.2c0.6,0,0.9,0,1-0.5c0.1-0.5,0.1-5.2,0.2-6c-0.4-0.4-0.6-0.5-1.1-0.5V1.8h2.4
		c0.7,0.9,0.8,1.1,2,2.6l2.2,2.7V3.5c0-1.2,0-1.3-1.3-1.4V1.8h3.1v0.4c-0.9,0-0.9,0.2-0.9,1.5l-0.1,6.1h-0.5L181,8.9
		c-0.4-0.4-0.7-0.9-1.1-1.3l-3.1-3.8v4.1c0,1.3,0.1,1.3,1.3,1.4v0.4H174.9z M165.7,6.2v0.4c-0.7,0-0.7,0.2-0.7,1.7v0.6
		c-0.6,0.4-1.5,0.9-3,0.9c-2.7,0-4-2.1-4-4.1c0-2.5,1.7-4.2,3.9-4.2c1.3,0,2.1,0.5,2.8,0.9l0.4-0.5l0.1,2.5l-0.3,0.1
		c-0.2-0.5-0.4-1-1-1.6c-0.3-0.3-0.8-0.6-1.6-0.6c-1.4,0-2.5,1.2-2.5,3.4c0,1.8,0.9,3.4,2.4,3.4c0.9,0,1.3-0.6,1.4-0.7
		c0.1-0.2,0.2-0.4,0.2-0.7c0-1-0.2-1-1-1.1V6.2H165.7z M40.7,9.6V9.2c0.8-0.1,0.9-0.2,0.9-1v-1V4c0-1.6,0-1.7-0.9-1.8V1.8H44v0.4
		c-0.9,0.1-0.9,0.1-0.9,1.8v3.2c0,0.3,0,1.2,0,1.4c0.1,0.5,0.3,0.6,0.9,0.6v0.4H40.7z M75.5,9.6V9.2c0.8-0.1,0.9-0.2,0.9-1v-1V4
		c0-1.6,0-1.7-0.9-1.8V1.8h3.3v0.4c-0.9,0.1-0.9,0.1-0.9,1.8v3.2c0,0.3,0,1.2,0,1.4c0.1,0.5,0.3,0.6,0.9,0.6v0.4H75.5z M31.1,9.6
		V9.2c0.6,0,0.9,0,1-0.5c0.1-0.5,0.1-5.2,0.2-6c-0.4-0.4-0.6-0.5-1.1-0.5V1.8h2.4c0.7,0.9,0.8,1.2,2,2.6l2.2,2.7V3.5
		c0-1.3,0-1.3-1.3-1.4V1.8h3.1v0.4c-0.9,0-0.9,0.2-0.9,1.5l-0.1,6.1h-0.5l-0.7-0.9c-0.4-0.4-0.7-0.9-1.1-1.3L33,3.7v4.1
		c0,1.3,0.1,1.3,1.3,1.4v0.4H31.1z M69,7.2l0.4,0c0.4,1.3,1.2,2,2.3,2c0.8,0,1.6-0.4,1.6-1.2c0-0.9-0.9-1.2-1.2-1.4
		c-0.3-0.1-0.6-0.2-1-0.4c-0.6-0.2-1.9-0.7-1.9-2.3c0-1.5,1.2-2.3,2.5-2.3c0.5,0,1.1,0.1,1.8,0.5L74,1.8l0.3,2.3l-0.4,0.1
		c-0.1-0.5-0.2-0.8-0.5-1.2c-0.4-0.5-0.9-0.7-1.5-0.7c-0.8,0-1.3,0.4-1.3,1c0,0.9,0.9,1.3,1.8,1.5c0.4,0.1,0.8,0.3,1.1,0.5
		c0.6,0.4,1.1,1.1,1.1,2c0,1.4-1.1,2.5-2.8,2.5c-1.1,0-1.7-0.4-2-0.6l-0.7-0.5L69,7.2z M81.9,9.6V9.3c0.7,0,0.9-0.3,0.9-0.9V2.6h-1
		c-0.9,0-1.5,0-1.6,1.4h-0.4L80,1.8h7.2L87.2,4h-0.4c-0.1-1.4-0.7-1.4-1.6-1.4h-1v5.8c0,0.6,0.2,0.9,0.9,0.9v0.3H81.9z M25.1,1.8
		v0.4C24,2.3,24,2.3,24,4v1.9c0,1,0,1.8,0.5,2.5C24.9,8.9,25.6,9,26,9c1.1,0,1.8-0.6,2-1.5c0.2-0.7,0.2-2.1,0.2-3c0-0.3,0-1.2,0-1.5
		c0-0.7-0.4-0.7-1.1-0.8V1.8h3v0.4c-0.7,0-0.9,0.2-0.9,0.9c0,0.2-0.1,2.4-0.1,2.7C29,6.4,29,7,28.9,7.6c-0.5,2.1-2.6,2.2-3.2,2.2
		c-0.4,0-1.3-0.1-2.1-0.6c-1.2-0.8-1.2-2-1.2-3.3V4.2c0-0.9,0-1.2,0-1.4c-0.1-0.5-0.3-0.6-0.9-0.6V1.8H25.1z M53.1,1.8v0.4
		c-0.8,0.1-0.9,0.3-1.5,1.9l-2.4,5.7h-0.4L46.6,4c-0.5-1.5-0.6-1.7-1.4-1.8V1.8h3.7v0.4c-0.6,0-1.1,0-1.1,0.5c0,0.2,0.1,0.4,0.3,1.1
		l1.4,4l1.6-4.1c0.1-0.3,0.2-0.6,0.2-0.8c0-0.6-0.6-0.6-1.1-0.6V1.8H53.1z M90.5,9.6V9.2c0.6-0.1,0.9-0.1,1-0.2
		c0.2-0.2,0.2-0.4,0.2-1.2V6.3l-2.1-3.3C89,2.2,89,2.2,88.2,2.2V1.7h4.1v0.4c-0.8,0-1.2,0-1.2,0.4c0,0.2,0.1,0.5,0.3,0.8l1.2,2
		l1.1-2C94,3,94.1,2.8,94.1,2.6c0-0.4-0.3-0.4-0.9-0.4V1.7h3.1v0.4c-0.8,0-1,0.3-1.9,1.7L93.2,6v1.6c0,1.4,0,1.5,1.2,1.6v0.4H90.5z
		 M59.8,9.6c0-0.6,0.1-1.5,0.2-2h-0.4c-0.3,1.4-1.1,1.3-2.2,1.3c-1.1,0-1.3-0.3-1.3-0.8V5.9H57c1,0,1.3,0.1,1.3,1h0.4V4.3h-0.4
		C58.2,5,58,5.2,57,5.2h-0.9V2.5h1c1.3,0,1.8,0.1,2,1.2h0.4l0-1.9h-5.6v0.4c0.6,0.1,0.8,0.1,0.9,0.5c0.1,0.2,0.1,1.1,0.1,1.4v2.8
		c0,0.2,0,1.2,0,1.4c0,0.9-0.1,0.9-0.9,1v0.4H59.8z M63.5,5.4c0.2,0,0.5,0.1,0.7,0.1c0.9,0,1.6-0.7,1.6-1.3c0.1-0.9-0.4-1.7-1.9-1.7
		c-0.2,0-0.3,0-0.5,0V5.4z M63.5,7.1c0,1.8,0,2.1,1,2.1v0.4h-3.3V9.2C62,9.1,62.1,9,62.1,8.2c0-0.3,0-0.7,0-1V4.3c0-0.9,0-1.3,0-1.5
		c-0.1-0.4-0.3-0.5-0.9-0.6V1.8l3.6,0c1.9,0,2.6,0.9,2.6,2c0,0.8-0.5,1.8-1.6,2.1l1.4,2.4c0.5,0.9,0.8,1.1,1.4,1.2v0.3
		c-0.2,0-0.3,0-0.5,0c-1.5,0-2.1-0.5-2.7-1.8L64.9,7c-0.5-1-0.6-0.9-1.4-0.9V7.1z"/>
</g>
</svg>
